<svg width="26" height="26" viewBox="0 0 26 26" fill="none" xmlns="http://www.w3.org/2000/svg">
<rect opacity="0.1" width="26" height="26" rx="5" fill="#01384D"/>
<g clip-path="url(#clip0_7204_219)">
<path d="M17.4377 9.5687C17.1939 9.32495 16.8002 9.32495 16.5564 9.5687L13.5002 12.6187L10.4439 9.56245C10.2002 9.3187 9.80645 9.3187 9.5627 9.56245C9.31895 9.8062 9.31895 10.2 9.5627 10.4437L12.6189 13.5L9.5627 16.5562C9.31895 16.8 9.31895 17.1937 9.5627 17.4375C9.80645 17.6812 10.2002 17.6812 10.4439 17.4375L13.5002 14.3812L16.5564 17.4375C16.8002 17.6812 17.1939 17.6812 17.4377 17.4375C17.6814 17.1937 17.6814 16.8 17.4377 16.5562L14.3814 13.5L17.4377 10.4437C17.6752 10.2062 17.6752 9.8062 17.4377 9.5687Z" fill="black"/>
</g>
<defs>
<clipPath id="clip0_7204_219">
<rect width="15" height="15" fill="white" transform="translate(6 6)"/>
</clipPath>
</defs>
</svg>
